<svg width="40" height="40" viewBox="0 0 40 40" fill="none" xmlns="http://www.w3.org/2000/svg">
<rect width="40" height="40" rx="5" fill="#FCDEDE"/>
<g clip-path="url(#clip0_11_164)">
<path d="M19.906 6.96897C19.8637 6.9766 19.822 6.98696 19.781 6.99997C19.5552 7.05057 19.354 7.17789 19.2116 7.36023C19.0692 7.54258 18.9944 7.76867 19 7.99997V9.06297C13.737 9.53997 9.54001 13.737 9.06201 19H8.00001C7.96869 18.9985 7.93733 18.9985 7.90601 19C7.64079 19.0124 7.39139 19.1297 7.21267 19.3261C7.03395 19.5224 6.94054 19.7817 6.95301 20.047C6.96547 20.3122 7.08279 20.5616 7.27914 20.7403C7.47549 20.919 7.73479 21.0124 8.00001 21H9.06301C9.54001 26.263 13.737 30.46 19 30.938V32C19 32.2652 19.1054 32.5195 19.2929 32.7071C19.4804 32.8946 19.7348 33 20 33C20.2652 33 20.5196 32.8946 20.7071 32.7071C20.8947 32.5195 21 32.2652 21 32V30.937C26.263 30.46 30.46 26.263 30.938 21H32C32.2652 21 32.5196 20.8946 32.7071 20.7071C32.8947 20.5195 33 20.2652 33 20C33 19.7347 32.8947 19.4804 32.7071 19.2929C32.5196 19.1053 32.2652 19 32 19H30.937C30.46 13.737 26.264 9.53997 21 9.06197V7.99997C21.0051 7.85776 20.9797 7.71612 20.9256 7.5845C20.8716 7.45288 20.79 7.33432 20.6865 7.23673C20.5829 7.13914 20.4597 7.06477 20.3251 7.0186C20.1906 6.97242 20.0477 6.9555 19.906 6.96897ZM19 12.062V13C19 13.2652 19.1054 13.5195 19.2929 13.7071C19.4804 13.8946 19.7348 14 20 14C20.2652 14 20.5196 13.8946 20.7071 13.7071C20.8947 13.5195 21 13.2652 21 13V12.062C22.7636 12.2816 24.4035 13.0831 25.6602 14.3398C26.9168 15.5965 27.7184 17.2364 27.938 19H27C26.9687 18.9985 26.9373 18.9985 26.906 19C26.6408 19.0124 26.3914 19.1297 26.2127 19.3261C26.0339 19.5224 25.9405 19.7817 25.953 20.047C25.9655 20.3122 26.0828 20.5616 26.2791 20.7403C26.4755 20.919 26.7348 21.0124 27 21H27.938C27.7184 22.7635 26.9168 24.4035 25.6602 25.6601C24.4035 26.9168 22.7636 27.7184 21 27.938V27C21.0037 26.848 20.9727 26.6972 20.9094 26.559C20.8461 26.4208 20.7521 26.2989 20.6345 26.2025C20.517 26.1061 20.3791 26.0377 20.2312 26.0026C20.0833 25.9675 19.9293 25.9666 19.781 26C19.5552 26.0506 19.354 26.1779 19.2116 26.3602C19.0692 26.5426 18.9944 26.7687 19 27V27.938C17.2364 27.7184 15.5965 26.9168 14.3399 25.6601C13.0832 24.4035 12.2816 22.7635 12.062 21H13C13.2652 21 13.5196 20.8946 13.7071 20.7071C13.8947 20.5195 14 20.2652 14 20C14 19.7347 13.8947 19.4804 13.7071 19.2929C13.5196 19.1053 13.2652 19 13 19H12.062C12.2816 17.2364 13.0832 15.5965 14.3399 14.3398C15.5965 13.0831 17.2364 12.2816 19 12.062Z" fill="#D96767"/>
</g>
<defs>
<clipPath id="clip0_11_164">
<rect width="26" height="26" fill="white" transform="translate(7 7)"/>
</clipPath>
</defs>
</svg>
