<svg width="40" height="40" viewBox="0 0 40 40" fill="none" xmlns="http://www.w3.org/2000/svg">
<rect width="40" height="40" rx="5" fill="#FBF6EC"/>
<path d="M23 28V26H31V28H23ZM20 20C20.8333 20 21.5417 19.7083 22.125 19.125C22.7083 18.5417 23 17.8333 23 17C23 16.1667 22.7083 15.4583 22.125 14.875C21.5417 14.2917 20.8333 14 20 14C19.1667 14 18.4583 14.2917 17.875 14.875C17.2917 15.4583 17 16.1667 17 17C17 17.8333 17.2917 18.5417 17.875 19.125C18.4583 19.7083 19.1667 20 20 20ZM18.5 17.5C18.3667 17.5 18.25 17.45 18.15 17.35C18.05 17.25 18 17.1333 18 17C18 16.8667 18.05 16.75 18.15 16.65C18.25 16.55 18.3667 16.5 18.5 16.5C18.6333 16.5 18.75 16.55 18.85 16.65C18.95 16.75 19 16.8667 19 17C19 17.1333 18.95 17.25 18.85 17.35C18.75 17.45 18.6333 17.5 18.5 17.5ZM20 17.5C19.8667 17.5 19.75 17.45 19.65 17.35C19.55 17.25 19.5 17.1333 19.5 17C19.5 16.8667 19.55 16.75 19.65 16.65C19.75 16.55 19.8667 16.5 20 16.5C20.1333 16.5 20.25 16.55 20.35 16.65C20.45 16.75 20.5 16.8667 20.5 17C20.5 17.1333 20.45 17.25 20.35 17.35C20.25 17.45 20.1333 17.5 20 17.5ZM21.5 17.5C21.3667 17.5 21.25 17.45 21.15 17.35C21.05 17.25 21 17.1333 21 17C21 16.8667 21.05 16.75 21.15 16.65C21.25 16.55 21.3667 16.5 21.5 16.5C21.6333 16.5 21.75 16.55 21.85 16.65C21.95 16.75 22 16.8667 22 17C22 17.1333 21.95 17.25 21.85 17.35C21.75 17.45 21.6333 17.5 21.5 17.5ZM13 29C12.45 29 11.979 28.804 11.587 28.412C11.195 28.02 10.9993 27.5493 11 27V13C11 12.45 11.196 11.979 11.588 11.587C11.98 11.195 12.4507 10.9993 13 11H27C27.55 11 28.021 11.196 28.413 11.588C28.805 11.98 29.0007 12.4507 29 13V21.35C28.6667 21.2333 28.3333 21.1457 28 21.087C27.6667 21.0283 27.3333 20.9993 27 21C25.3333 21 23.9167 21.5833 22.75 22.75C21.5833 23.9167 21 25.3333 21 27C21 27.3333 21.0293 27.6667 21.088 28C21.1467 28.3333 21.234 28.6667 21.35 29H13Z" fill="#ECBD4E"/>
</svg>
